<?xml version="1.0" standalone="yes"?>
<svg xmlns="http://www.w3.org/2000/svg" width="276px" height="276px">
<path style="fill:#FFFFFF; stroke:none;" d="M0 0L0 64L64 64L64 0L0 0z"/>
<path style="fill:#5a433d; stroke:none;" d="M19 11C14.6753 11.1409 9.01869 13.5961 15 17L15 19C10.0671 21.8032 13.8103 25.7418 17 21L18 21C18.5384 27.2185 13.6151 24.9751 11.608 29.3171C8.61833 35.7849 19.2522 42.601 7 43L7 53C13.1788 52.9952 16.7704 52.993 17 46L19 46L23 55C9.75186 55.4315 22.0843 65.785 25 57L39 57C41.9157 65.785 54.2481 55.4315 41 55L45 46L47 46C47.2296 52.993 50.8212 52.9952 57 53L57 43C44.7478 42.601 55.3817 35.7849 52.392 29.3171C50.3849 24.9751 45.4616 27.2185 46 21L47 21C50.1897 25.7418 53.9329 21.8032 49 19L49 17C54.9813 13.5961 49.3247 11.1409 45 11C50.9007 3.32507 42.7325 0.231148 39 7L37 7C34.3833 2.25529 29.6167 2.25528 27 7L25 7C21.2675 0.231136 13.0993 3.32508 19 11z"/>
<path style="fill:#655673; stroke:none;" d="M16 5C25.3398 19.0027 38.6602 19.0027 48 5L26 6.83179L16 5z"/>
<path style="fill:#9b797c; stroke:none;" d="M18 5C24.5273 17.43 39.4727 17.43 46 5C34.7816 7.34821 29.2184 7.34821 18 5z"/>
<path style="fill:#655673; stroke:none;" d="M13 12C14.2132 16.6494 16.5741 19.184 21 21C19.9334 15.6025 18.9449 12.4535 13 12M43 21C47.4259 19.184 49.7868 16.6494 51 12C45.0551 12.4535 44.0666 15.6025 43 21z"/>
<path style="fill:#9b797c; stroke:none;" d="M14 13L19 18C18.4125 14.597 17.3506 13.728 14 13z"/>
<path style="fill:#191113; stroke:none;" d="M21 13C21.7143 22.1678 42.2857 22.1678 43 13C35.9512 16.3209 29.3824 19.6865 23 13L21 13z"/>
<path style="fill:#5a433d; stroke:none;" d="M23 13L24 14L23 13M40 13L41 14L40 13z"/>
<path style="fill:#9b797c; stroke:none;" d="M45 18L50 13C46.6494 13.728 45.5875 14.597 45 18z"/>
<path style="fill:#5a433d; stroke:none;" d="M24 14L24 16L26 16L24 14M39 14L38 16L40 16L39 14M26 16L26 17L38 17L26 16z"/>
<path style="fill:#655673; stroke:none;" d="M13 20L12 21L13 24L16 21L13 20z"/>
<path style="fill:#9b797c; stroke:none;" d="M16 44C0.677783 44.1816 15.8184 59.3222 16 44L21 50C29.0232 47.8773 34.9768 47.8773 43 50L48 44C48.1816 59.3222 63.3222 44.1816 48 44C48.0488 39.8287 52.0725 33.83 51.169 30.3179C50.4607 27.5645 46.4194 28.2833 44.7685 26.3981C43.4166 24.8544 44.0056 22.3777 42.3619 21.0278C39.5548 18.7223 24.4452 18.7223 21.6381 21.0278C19.7785 22.5551 20.5982 25.4557 18.5941 26.9769C17.0153 28.1753 14.2557 27.7703 13.1366 29.6026C11.5202 32.249 15.9575 40.3638 16 44z"/>
<path style="fill:#655673; stroke:none;" d="M48 21L51 24L52 21L51 20L48 21z"/>
<path style="fill:#ecaf8a; stroke:none;" d="M21 21C25.0387 30.2303 38.9613 30.2303 43 21L21 21z"/>
<path style="fill:#655673; stroke:none;" d="M20 24L20 27L21 27L20 24M43 24L43 27L44 27L43 24M18.6667 27.3333L19.3333 27.6667L18.6667 27.3333M44.6667 27.3333L45.3333 27.6667L44.6667 27.3333M12 28L13 29L12 28z"/>
<path style="fill:#ecaf8a; stroke:none;" d="M13 29L22 48L42 48L51 29L42 28C38.985 37.7994 39.5008 32.6343 32 32.6343C24.4992 32.6343 25.015 37.7994 22 28L13 29z"/>
<path style="fill:#655673; stroke:none;" d="M24 29L24 30L28 29L28 33C29.1384 29.5324 27.2713 28.4971 24 29M35 33L36 33L36 29L40 30C36.8006 27.817 35.5687 29.5872 35 33M51 28L52 29L51 28z"/>
<path style="fill:#5a433d; stroke:none;" d="M25 35L27 35L28 32L27 32L25 34L25 30L28 31C24.9426 27.7699 24.4374 32.5388 25 35M36 31L39 30L39 34L37 32L36 32L37 35L39 35C39.5625 32.5388 39.0573 27.7699 36 31z"/>
<path style="fill:#191113; stroke:none;" d="M25 30L25 34L27 30L25 30M37 30L39 34L39 30L37 30z"/>
<path style="fill:#655673; stroke:none;" d="M12.3333 32.6667L12.6667 33.3333L12.3333 32.6667M51.3333 32.6667L51.6667 33.3333L51.3333 32.6667z"/>
<path style="fill:#9b797c; stroke:none;" d="M28 33L27 36L28 33M35 33L37 36L35 33z"/>
<path style="fill:#655673; stroke:none;" d="M13 34L14 35L13 34M24 34L25 35L24 34M27 34L28 35L27 34M36 34L37 35L36 34M39 34L40 35L39 34M50 34L51 35L50 34M14 35L15 36L14 35M25.6667 35.3333L26.3333 35.6667L25.6667 35.3333M37.6667 35.3333L38.3333 35.6667L37.6667 35.3333M49 35L50 36L49 35M15.3333 36.6667L15.6667 37.3333L15.3333 36.6667M48.3333 36.6667L48.6667 37.3333L48.3333 36.6667z"/>
<path style="fill:#9b797c; stroke:none;" d="M24.662 40.0231C20.2329 43.9395 36.0556 46.9623 39.338 43.4159C43.772 38.6251 27.2274 37.7548 24.662 40.0231z"/>
<path style="fill:#655673; stroke:none;" d="M25 40L25 44L26 44L25 40z"/>
<path style="fill:#5a433d; stroke:none;" d="M25 41L25 43L39 43L39 41L25 41z"/>
<path style="fill:#655673; stroke:none;" d="M38 40L39 41L38 40z"/>
<path style="fill:#191113; stroke:none;" d="M26 41L26 43L38 43L38 41L26 41z"/>
<path style="fill:#655673; stroke:none;" d="M39.3333 41.6667L39.6667 42.3333L39.3333 41.6667M15 42L14 44L16 44L15 42M48 42L48 44L50 44L48 42M38 43L39 44L38 43M8 44L9 45L8 44M16 44L17 45L16 44M18 44L19 45L18 44M45 44L46 45L45 44M47 44L48 45L47 44M55 44L56 45L55 44z"/>
<path style="fill:#ecaf8a; stroke:none;" d="M9 45L9 51L15 51L15 45L9 45z"/>
<path style="fill:#655673; stroke:none;" d="M19 45L20 46L19 45M44 45L45 46L44 45z"/>
<path style="fill:#ecaf8a; stroke:none;" d="M49 45L49 51L55 51L55 45L49 45z"/>
<path style="fill:#655673; stroke:none;" d="M20.3333 48.6667L20.6667 49.3333L20.3333 48.6667M25 48L26 49L25 48z"/>
<path style="fill:#5a433d; stroke:none;" d="M26 48L26 49L38 49L26 48z"/>
<path style="fill:#655673; stroke:none;" d="M38 48L39 49L38 48M43.3333 48.6667L43.6667 49.3333L43.3333 48.6667M23 49L21 50L21 51L23 49z"/>
<path style="fill:#191113; stroke:none;" d="M25 50L25 51L39 51C35.0998 48.0452 29.5264 48.6621 25 50z"/>
<path style="fill:#655673; stroke:none;" d="M40 49L43 51L43 50L40 49M8 51L9 52L8 51M15 51L16 52L15 51M48 51L49 52L48 51M55 51L56 52L55 51M24 53L24 55L40 55L40 53L24 53z"/>
<path style="fill:#9b797c; stroke:none;" d="M26 53L26 55L38 55L38 53L26 53z"/>
<path style="fill:#655673; stroke:none;" d="M17 56L17 60L24 59L24 57L17 56M40 57L40 59L47 60L47 56L40 57z"/>
<path style="fill:#9b797c; stroke:none;" d="M18 57L18 59L22 59L22 57L18 57M42 57L42 59L46 59L46 57L42 57z"/>
</svg>
