<?xml version="1.0" standalone="no"?>
<!DOCTYPE svg PUBLIC "-//W3C//DTD SVG 20010904//EN"
 "http://www.w3.org/TR/2001/REC-SVG-20010904/DTD/svg10.dtd">
<svg version="1.0" xmlns="http://www.w3.org/2000/svg"
 width="276.000000pt" height="276.000000pt" viewBox="0 0 276.000000 276.000000"
 preserveAspectRatio="xMidYMid meet">

<g transform="translate(0.000000,64.000000) scale(0.100000,-0.100000)"
fill="#000000" stroke="none">
<path d="M160 620 c0 -11 -5 -20 -11 -20 -6 0 -24 -13 -40 -29 -29 -29 -29
-30 -29 -154 0 -118 1 -125 23 -141 l22 -16 -23 -16 c-12 -9 -22 -22 -22 -29
0 -7 -9 -15 -20 -18 -28 -7 -28 -67 0 -74 11 -3 20 -11 20 -19 0 -7 9 -18 20
-24 14 -8 20 -21 20 -45 l0 -35 60 0 c53 0 60 2 60 20 0 18 7 20 80 20 73 0
80 -2 80 -20 0 -18 7 -20 60 -20 l60 0 0 35 c0 24 6 37 20 45 11 6 20 17 20
24 0 8 9 16 20 19 28 7 28 67 0 74 -11 3 -20 11 -20 18 0 7 -10 20 -22 29
l-23 16 23 16 c21 16 22 23 22 141 0 124 0 125 -29 154 -16 16 -34 29 -40 29
-6 0 -11 9 -11 20 0 17 -7 20 -40 20 -33 0 -40 -3 -40 -20 0 -13 -7 -20 -20
-20 -13 0 -20 7 -20 20 0 17 -7 20 -40 20 -33 0 -40 -3 -40 -20 0 -13 -7 -20
-20 -20 -13 0 -20 7 -20 20 0 17 -7 20 -40 20 -33 0 -40 -3 -40 -20z m175 -49
c7 -12 -12 -24 -25 -16 -11 7 -4 25 10 25 5 0 11 -4 15 -9z m-47 -52 c-2 -6
-8 -10 -13 -10 -5 0 -11 4 -13 10 -2 6 4 11 13 11 9 0 15 -5 13 -11z m90 0
c-2 -6 -8 -10 -13 -10 -5 0 -11 4 -13 10 -2 6 4 11 13 11 9 0 15 -5 13 -11z
m47 -120 c0 -32 2 -34 40 -39 46 -6 57 -30 30 -60 -10 -11 -18 -33 -19 -49 -1
-17 -11 -39 -24 -51 -12 -11 -22 -26 -22 -33 0 -9 -31 -12 -110 -12 -79 0
-110 3 -110 12 0 7 -10 22 -22 33 -13 12 -23 34 -24 51 -1 16 -9 38 -19 49
-27 30 -16 54 30 60 35 4 40 8 37 30 -5 43 1 45 109 44 l104 0 0 -35z m-273
-224 c8 -19 8 -28 -2 -40 -23 -28 -70 -12 -70 25 0 42 54 54 72 15z m402 3
c23 -38 -36 -77 -64 -43 -10 12 -10 21 -1 41 13 29 47 30 65 2z"/>
<path d="M235 340 c-9 -29 3 -60 24 -60 20 0 47 52 36 69 -11 19 -53 13 -60
-9z"/>
<path d="M345 349 c-11 -17 16 -69 36 -69 21 0 33 31 24 60 -7 22 -49 28 -60
9z"/>
<path d="M258 243 c-10 -2 -18 -13 -18 -24 0 -17 8 -19 80 -19 72 0 80 2 80
19 0 11 -9 21 -22 25 -26 6 -94 6 -120 -1z"/>
</g>
</svg>
